<?xml version="1.0" encoding="UTF-8"?>
<!-- SPDX-FileCopyrightText: 2026 Gabriel Fiamoncini -->
<!-- SPDX-License-Identifier: GPL-3.0-or-later -->
<svg xmlns="http://www.w3.org/2000/svg" width="16" height="16" viewBox="0 0 16 16">
  <path fill="#2e3436" d="M8 0.5a1 1 0 0 1 .5 1.87V3.5H12a2.5 2.5 0 0 1 2.5 2.5v5.5A2.5 2.5 0 0 1 12 14H4a2.5 2.5 0 0 1-2.5-2.5V6A2.5 2.5 0 0 1 4 3.5h3.5V2.37A1 1 0 0 1 8 .5zM4 5a1 1 0 0 0-1 1v5.5a1 1 0 0 0 1 1h8a1 1 0 0 0 1-1V6a1 1 0 0 0-1-1zm1.75 1.75a1.25 1.25 0 1 1 0 2.5 1.25 1.25 0 0 1 0-2.5zm4.5 0a1.25 1.25 0 1 1 0 2.5 1.25 1.25 0 0 1 0-2.5zM5.5 10.25h5v1h-5zM0 7h1v3.5H0zm15 0h1v3.5h-1z"/>
</svg>
